<svg viewBox="0 0 64 64" fill="none" xmlns="http://www.w3.org/2000/svg">
<path d="M57.554 32H58L58 16C58 11.5817 54.4183 8 50 8H42C37.5817 8 34 11.5817 34 16C34 16.6773 34.0421 17.3448 34.1238 18H40C48.5664 18 55.7351 23.984 57.554 32Z" fill="#3CD8FA"/>
<path d="M4 26V44H16.446C16.1541 42.7136 16 41.3748 16 40V36C16 26.4045 23.5083 18.5626 32.9703 18.029C30.7722 15.5572 27.568 14 24 14H16C9.37258 14 4 19.3726 4 26Z" fill="#FF639B"/>
<path d="M56 52C56 54.2091 54.2091 56 52 56H36C27.1634 56 20 48.8365 20 40L20 38C20 29.1634 27.1634 22 36 22L40 22C48.8366 22 56 29.1634 56 38V52Z" fill="#FFD646"/>
</svg>
