<svg width="56" height="52" viewBox="0 0 56 52" fill="none" xmlns="http://www.w3.org/2000/svg">
<path d="M26 35C26 38.866 22.866 42 19 42C15.134 42 12 38.866 12 35C12 31.134 15.134 28 19 28C22.866 28 26 31.134 26 35Z" fill="#FF639B"/>
<path d="M44 35C44 38.866 40.866 42 37 42C33.134 42 30 38.866 30 35C30 31.134 33.134 28 37 28C40.866 28 44 31.134 44 35Z" fill="#FF639B"/>
<path d="M0 21C0 19.3431 1.34315 18 3 18H53C54.6569 18 56 19.3431 56 21C56 22.6569 54.6569 24 53 24H3C1.34314 24 0 22.6569 0 21Z" fill="#3CD8FA"/>
<path d="M14 2C14 0.895431 14.8954 0 16 0H40C41.1046 0 42 0.895431 42 2V14C42 15.1046 41.1046 16 40 16H16C14.8954 16 14 15.1046 14 14V2Z" fill="#FFD646"/>
<path d="M20 50C20 48.8954 20.8954 48 22 48H34C35.1046 48 36 48.8954 36 50C36 51.1046 35.1046 52 34 52H22C20.8954 52 20 51.1046 20 50Z" fill="#FFD646"/>
</svg>
