<svg viewBox="0 0 64 64" fill="none" xmlns="http://www.w3.org/2000/svg">
<path d="M44 15C40.5 11.5 34.8893 10.0391 30 10L30 32L44 15Z" fill="#3CD8FA"/>
<path d="M59 30.9999C58.6003 27.8676 57.3285 24.1781 55.5857 21.4177C53.8429 18.6573 51.4941 16.2235 48.6736 14.2552L31 32.9999L59 30.9999Z" fill="#FF639B"/>
<path d="M28 14C23.2533 14 18.6131 15.2316 14.6663 17.5391C10.7195 19.8466 7.64341 23.1264 5.8269 26.9636C4.0104 30.8009 3.53512 35.0233 4.46116 39.0969C5.38721 43.1705 7.67299 46.9123 11.0294 49.8492C14.3859 52.7861 18.6623 54.7862 23.3178 55.5965C27.9734 56.4068 32.799 55.9909 37.1844 54.4015C41.5698 52.812 45.3181 50.1204 47.9553 46.667C50.5924 43.2135 52 39.1534 52 35L31.8298 35C31.8298 35.6628 31.6052 36.3107 31.1844 36.8618C30.7636 37.4129 30.1654 37.8424 29.4656 38.096C28.7658 38.3497 27.9958 38.416 27.2528 38.2867C26.5099 38.1574 25.8275 37.8382 25.2919 37.3696C24.7563 36.9009 24.3915 36.3038 24.2438 35.6538C24.096 35.0037 24.1718 34.3299 24.4617 33.7176C24.7516 33.1053 25.2425 32.5819 25.8723 32.2137C26.5021 31.8454 27.2425 31.6489 28 31.6489L28 14Z" fill="#FFD646"/>
</svg>
