<svg aria-hidden="true" style="position: absolute; width: 0; height: 0; overflow: hidden;" version="1.1" xmlns="http://www.w3.org/2000/svg" xmlns:xlink="http://www.w3.org/1999/xlink">
<defs>
<symbol id="icon-email" viewBox="0 0 32 32">
<path d="M18.291 14.037c0 1.056-0.357 2.439-0.912 3.523-1.345 2.64-4.084 2.623-4.084-0.187 0-1.048 0.36-2.399 0.916-3.44 1.361-2.567 4.080-2.165 4.080 0.104zM32 16c0 8.836-7.164 16-16 16s-16-7.164-16-16 7.164-16 16-16 16 7.164 16 16zM25.333 14.408c0-4.328-3.508-7.468-8.341-7.468-6.623 0-10.325 4.199-10.325 9.431 0 4.896 3.289 8.689 9.365 8.689 3.36 0 5.499-0.968 6.829-1.717l-0.916-1.321c-1.363 0.791-3.001 1.515-5.675 1.515-4.572 0-7.644-2.932-7.644-7.297 0-7.619 8.535-9.011 12.285-6.761 3.499 2.189 3.365 7.437 0.776 9.444-1.379 1.101-2.932 1.065-2.428-1.008 0 0 1.616-5.985 1.805-6.633h-1.819l-0.361 1.269c-0.371-1.047-1.257-1.727-2.548-1.727-2.691 0-4.963 2.92-4.963 6.377 0 2.307 1.217 3.739 3.173 3.739 1.711 0 2.6-0.968 3.152-1.831-0.4 3.864 7.633 2.076 7.633-4.7z"></path>
</symbol>
<symbol id="icon-github" viewBox="0 0 32 32">
<path d="M16 0c-8.835 0-16 7.164-16 16 0 7.069 4.584 13.067 10.943 15.183 0.799 0.148 1.057-0.348 1.057-0.769v-2.979c-4.451 0.968-5.377-1.888-5.377-1.888-0.728-1.849-1.777-2.341-1.777-2.341-1.452-0.993 0.111-0.972 0.111-0.972 1.607 0.112 2.452 1.649 2.452 1.649 1.427 2.445 3.743 1.739 4.656 1.329 0.143-1.033 0.557-1.74 1.016-2.139-3.553-0.407-7.289-1.779-7.289-7.908 0-1.748 0.625-3.175 1.648-4.295-0.165-0.404-0.713-2.032 0.156-4.235 0 0 1.344-0.429 4.401 1.64 1.276-0.355 2.644-0.532 4.004-0.539 1.36 0.007 2.729 0.184 4.008 0.539 3.055-2.069 4.396-1.64 4.396-1.64 0.871 2.204 0.323 3.832 0.157 4.235 1.027 1.12 1.647 2.548 1.647 4.295 0 6.145-3.743 7.499-7.305 7.895 0.573 0.496 1.097 1.469 1.097 2.963v4.391c0 0.425 0.256 0.925 1.068 0.768 6.353-2.119 10.932-8.115 10.932-15.181 0-8.836-7.164-16-16-16z"></path>
</symbol>
<symbol id="icon-linkedin" viewBox="0 0 32 32">
<path d="M16 0c-8.836 0-16 7.164-16 16s7.164 16 16 16 16-7.164 16-16-7.164-16-16-16zM13.333 21.333h-2.667v-8h2.667v8zM12 12.145c-0.809 0-1.467-0.661-1.467-1.479 0-0.816 0.656-1.479 1.467-1.479s1.467 0.663 1.467 1.479c0 0.817-0.657 1.479-1.467 1.479zM22.667 21.333h-2.664v-3.815c0-2.508-2.669-2.296-2.669 0v3.815h-2.667v-8h2.667v1.457c1.163-2.155 5.333-2.315 5.333 2.064v4.479z"></path>
</symbol>
<symbol id="icon-phone" viewBox="0 0 32 32">
<path d="M16 0c-8.836 0-16 7.164-16 16s7.164 16 16 16 16-7.164 16-16-7.164-16-16-16zM20.593 23.769c-4.912 2.245-12.535-12.573-7.733-15.077l1.404-0.692 2.328 4.545-1.389 0.684c-1.46 0.783 1.58 6.72 3.073 5.996l1.376-0.673 2.347 4.529-1.405 0.688z"></path>
</symbol>
</defs>
</svg>
